<svg width="90" height="76" viewBox="0 0 90 76" fill="none" xmlns="http://www.w3.org/2000/svg">
<g id="carbon:next-filled">
<path id="Vector" d="M5.625 40.5C5.625 47.5089 7.9343 54.3604 12.2609 60.188C16.5875 66.0157 22.737 70.5578 29.9318 73.24C37.1267 75.9222 45.0437 76.6239 52.6817 75.2566C60.3197 73.8892 67.3356 70.5141 72.8423 65.5581C78.349 60.6021 82.0991 54.2877 83.6184 47.4135C85.1377 40.5393 84.358 33.414 81.3778 26.9387C78.3976 20.4633 73.3508 14.9287 66.8756 11.0348C60.4004 7.14087 52.7876 5.0625 45 5.0625C34.5571 5.0625 24.5419 8.79608 17.1577 15.4419C9.77343 22.0877 5.625 31.1014 5.625 40.5ZM22.5 37.9688H56.6719L40.9781 23.776L45 20.25L67.5 40.5L45 60.75L40.9781 57.1379L56.6719 43.0312H22.5V37.9688Z" fill="black"/>
</g>
</svg>
