<svg width="90" height="76" viewBox="0 0 90 76" fill="none" xmlns="http://www.w3.org/2000/svg">
<g id="carbon:next-filled">
<path id="Vector" d="M84.375 40.5C84.375 33.4911 82.0657 26.6396 77.7391 20.812C73.4125 14.9843 67.263 10.4422 60.0682 7.76002C52.8733 5.07784 44.9563 4.37606 37.3183 5.74342C29.6803 7.11079 22.6644 10.4859 17.1577 15.4419C11.651 20.3979 7.90087 26.7123 6.38158 33.5865C4.86229 40.4607 5.64204 47.586 8.62225 54.0613C11.6024 60.5367 16.6492 66.0713 23.1244 69.9652C29.5996 73.8591 37.2124 75.9375 45 75.9375C55.4429 75.9375 65.4581 72.2039 72.8423 65.5581C80.2266 58.9123 84.375 49.8986 84.375 40.5ZM67.5 43.0312L33.3281 43.0312L49.0219 57.224L45 60.75L22.5 40.5L45 20.25L49.0219 23.8621L33.3281 37.9687L67.5 37.9688V43.0312Z" fill="black"/>
</g>
</svg>
