<svg width="88" height="93" viewBox="0 0 88 93" fill="none" xmlns="http://www.w3.org/2000/svg">
<g id="ion:home">
<path id="Vector" d="M44.9556 18.3966C44.6997 18.1379 44.3592 17.9935 44.0051 17.9935C43.651 17.9935 43.3106 18.1379 43.0547 18.3966L11.4125 50.3417C11.2781 50.4776 11.1712 50.6408 11.0982 50.8216C11.0252 51.0023 10.9877 51.1969 10.9879 51.3934L10.9828 81.375C10.9828 82.9166 11.5623 84.395 12.5937 85.4851C13.6252 86.5751 15.0241 87.1875 16.4828 87.1875H33C33.7293 87.1875 34.4288 86.8813 34.9445 86.3363C35.4602 85.7913 35.75 85.052 35.75 84.2813V59.5781C35.75 59.1927 35.8948 58.8231 36.1527 58.5506C36.4106 58.2781 36.7603 58.125 37.125 58.125H50.875C51.2396 58.125 51.5894 58.2781 51.8472 58.5506C52.1051 58.8231 52.25 59.1927 52.25 59.5781V84.2813C52.25 85.052 52.5397 85.7913 53.0554 86.3363C53.5712 86.8813 54.2706 87.1875 55 87.1875H71.5103C72.969 87.1875 74.3679 86.5751 75.3994 85.4851C76.4308 84.395 77.0103 82.9166 77.0103 81.375V51.3934C77.0105 51.1969 76.973 51.0023 76.9 50.8216C76.827 50.6408 76.7201 50.4776 76.5858 50.3417L44.9556 18.3966Z" fill="#FF9A62"/>
<path id="Vector_2" d="M84.3752 44.3476L71.5189 31.3494V11.625C71.5189 10.8542 71.2292 10.115 70.7135 9.56997C70.1977 9.02494 69.4983 8.71875 68.7689 8.71875H60.5189C59.7896 8.71875 59.0901 9.02494 58.5744 9.56997C58.0586 10.115 57.7689 10.8542 57.7689 11.625V17.4375L47.8139 7.37824C46.8823 6.38285 45.497 5.8125 44 5.8125C42.5081 5.8125 41.1263 6.38285 40.1947 7.38006L3.63688 44.3439C2.56782 45.4338 2.43375 47.2266 3.40657 48.4072C3.65085 48.7052 3.94997 48.9476 4.2857 49.1196C4.62144 49.2915 4.98678 49.3895 5.35948 49.4075C5.73218 49.4255 6.10445 49.3632 6.45364 49.2243C6.80283 49.0855 7.12162 48.873 7.39063 48.5998L43.0547 12.5841C43.3106 12.3254 43.651 12.181 44.0052 12.181C44.3593 12.181 44.6997 12.3254 44.9556 12.5841L80.6231 48.5998C81.1485 49.1322 81.8523 49.4228 82.5801 49.4079C83.3079 49.3929 84.0004 49.0735 84.5058 48.5198C85.5611 47.3646 85.4734 45.4574 84.3752 44.3476Z" fill="#FF9A62"/>
</g>
</svg>
