<svg width="100" height="100" viewBox="0 0 100 100" fill="none" xmlns="http://www.w3.org/2000/svg">
<g id="ph:eye">
<path id="Vector" d="M96.6055 48.7344C96.4687 48.4258 93.1601 41.0859 85.8047 33.7305C76.0039 23.9297 63.625 18.75 50 18.75C36.375 18.75 23.9961 23.9297 14.1953 33.7305C6.83984 41.0859 3.51562 48.4375 3.39452 48.7344C3.21684 49.134 3.12503 49.5665 3.12503 50.0039C3.12503 50.4413 3.21684 50.8738 3.39452 51.2734C3.53124 51.582 6.83984 58.918 14.1953 66.2734C23.9961 76.0703 36.375 81.25 50 81.25C63.625 81.25 76.0039 76.0703 85.8047 66.2734C93.1601 58.918 96.4687 51.582 96.6055 51.2734C96.7831 50.8738 96.875 50.4413 96.875 50.0039C96.875 49.5665 96.7831 49.134 96.6055 48.7344ZM50 75C37.9766 75 27.4726 70.6289 18.7773 62.0117C15.2095 58.4636 12.1742 54.4178 9.76562 50C12.1735 45.5818 15.209 41.5358 18.7773 37.9883C27.4726 29.3711 37.9766 25 50 25C62.0234 25 72.5273 29.3711 81.2226 37.9883C84.7974 41.535 87.8394 45.5809 90.2539 50C87.4375 55.2578 75.168 75 50 75ZM50 31.25C46.2916 31.25 42.6665 32.3497 39.5831 34.4099C36.4996 36.4702 34.0964 39.3986 32.6773 42.8247C31.2581 46.2508 30.8868 50.0208 31.6103 53.6579C32.3337 57.2951 34.1195 60.636 36.7417 63.2583C39.364 65.8805 42.7049 67.6663 46.3421 68.3897C49.9792 69.1132 53.7492 68.7419 57.1753 67.3227C60.6014 65.9036 63.5298 63.5004 65.59 60.4169C67.6503 57.3335 68.75 53.7084 68.75 50C68.7448 45.0288 66.7677 40.2626 63.2525 36.7475C59.7374 33.2323 54.9712 31.2552 50 31.25ZM50 62.5C47.5277 62.5 45.111 61.7669 43.0554 60.3934C40.9998 59.0199 39.3976 57.0676 38.4515 54.7835C37.5054 52.4995 37.2579 49.9861 37.7402 47.5614C38.2225 45.1366 39.413 42.9093 41.1612 41.1612C42.9093 39.413 45.1366 38.2225 47.5614 37.7402C49.9861 37.2579 52.4995 37.5054 54.7835 38.4515C57.0676 39.3976 59.0198 40.9998 60.3934 43.0554C61.7669 45.111 62.5 47.5277 62.5 50C62.5 53.3152 61.183 56.4946 58.8388 58.8388C56.4946 61.183 53.3152 62.5 50 62.5Z" fill="black"/>
</g>
</svg>
